<svg version="1.2" xmlns="http://www.w3.org/2000/svg" viewBox="0 0 1920 1080" width="1920" height="1080">
	<title>logo-svg</title>
	<style>
		.s0 { fill: #000000 } 
		.s1 { fill: #fdf252 } 
	</style>
	<path id="Layer" className="s0" d="m0 0h1920v1080h-1920z"/>
	<g id="Layer">
		<path id="Layer" fill-rule="evenodd" className="s1" d="m620 524v-258h-169c-1.7 0-3 1.3-3 3q0 0.2 0 0.3l65 87.2 0.5 0.8c8.7 11.5 16.5 24.2 16.5 52.4 0 32.3-12.1 61.8-34.1 83-20.9 20.2-48.8 31.3-78.6 31.3h-361.3v-142h298.3c1.5 0 1.7-2.1 1.7-3v-0.2c-8.2-9.7-53.7-63.6-62.9-74.7l-0.4-0.4-0.3-0.5c-8.6-11.5-16.4-24.3-16.4-53.2 0-32.3 11.9-62 33.4-83.6 21-20.9 48.9-32.4 78.6-32.4h538v132h-164v258zm553.9 0l-16-50h-133.8l-16 50h-140.3l126.2-390h191.9l128.5 390zm-56.6-168l-26.3-78.2-26.4 78.2zm512.6 168c-16.5 0-31.6-5.9-44.6-17.6-22.2-19.8-60.6-56-89.4-83.2v100.8h-148v-390h254c71.7 0 130 58.3 130 130 0 46.9-25.4 89.3-64.8 112.1 3.4 3.7 6.4 5.9 12.8 5.9h184v142zm-57-234c10.5 0 19-8.5 19-19 0-10.5-8.5-19-19-19h-77v38zm-1173.7 646l-55.8-163.7-55.7 163.7h-97.7l-127.4-390h143.4l32.8 102.4 35.5-102.4h138.3l35.5 102.4 32.8-102.4h143.4l-127.4 390zm470.7 0l-16-50h-133.9l-16 50h-140.3l126.2-390h192l128.5 390zm-56.6-168l-26.4-78.2-26.3 78.2zm516.6 168c-16.6 0-31.6-5.9-44.7-17.6-22.2-19.9-60.6-56-89.3-83.2v100.8h-148v-390h254c71.7 0 130 58.3 130 130 0 46.9-25.5 89.3-64.9 112.1 3.5 3.7 6.4 5.9 12.9 5.9h212.3c1.5 0 1.7-2.1 1.7-3q0-0.1 0-0.2c-8.2-9.7-53.7-63.6-62.9-74.7l-0.4-0.4-0.3-0.5c-8.6-11.5-16.4-24.3-16.4-53.2 0-32.3 11.9-62 33.4-83.6 21-20.9 48.9-32.4 78.6-32.4h238v132h-175c-1.7 0-3 1.3-3 3q0 0.2 0 0.3l65 87.2 0.5 0.8c8.7 11.5 16.5 24.2 16.5 52.4 0 32.3-12.1 61.8-34.1 83-20.9 20.2-48.8 31.3-78.6 31.3zm-57-234c10.5 0 19-8.5 19-19 0-10.5-8.5-19-19-19h-77v38z"/>
	</g>
	<path id="Layer" fill-rule="evenodd" className="s0" d="m904 244h-164v258h-98v-258h-191c-13.8 0-25 11.2-25 25 0 7 2.3 10.7 4 13l65.3 87.7c6 8 12.7 16 12.7 40 0 56-42.7 92.3-90.7 92.3h-339.3v-98h276.3c13.8 0 23.7-11.2 23.7-25 0-7-2.3-10.7-4-13 0 0-54-64-64-76-6-8-12-16-12-40 0-56 42-94 90-94h516zm380 258h-94l-16-50h-166l-16 50h-94l112-346h160zm-136-124l-57-169-57 169zm694 26v98h-212c-16 0-25.8-8.2-30-12-38-34-126-118-126-118v130h-104v-346h232c59.6 0 108 48.4 108 108 0 49.9-34.1 91.6-80 104l20 22c5.7 6.3 14 14 30 14zm-368-92h99c22.6 0 41-18.4 41-41 0-22.6-18.4-41-41-41h-99zm-880 256l-113 346h-66l-71.5-210-71.5 210h-66l-113-346h97l48 150 52-150h107l52 150 48-150zm386 346h-94l-16-50h-166l-16 50h-94l112-346h160zm-136-124l-57-169-57 169zm820-109c0 7 2.3 10.7 4 13l65.3 87.7c6 8 12.7 16 12.7 40 0 56-42.7 92.3-90.7 92.3h-325.3c-16 0-25.8-8.2-30-12-38-34-126-118-126-118v130h-104v-346h232c59.6 0 108 48.4 108 108 0 49.9-34.1 91.6-80 104l20 22c5.7 6.3 14 14 30 14h212.3c13.8 0 23.7-11.2 23.7-25 0-7-2.3-10.7-4-13 0 0-54-64-64-76-6-8-12-16-12-40 0-56 42-94 90-94h216v88h-153c-13.8 0-25 11.2-25 25zm-350 2c0-22.6-18.4-41-41-41h-99v82h99c22.6 0 41-18.4 41-41z"/>
</svg>